<mxfile host="app.diagrams.net" modified="2023-04-06T03:03:56.410Z" agent="Mozilla/5.0 (X11; Linux x86_64) AppleWebKit/537.36 (KHTML, like Gecko) Chrome/110.0.0.0 Safari/537.36" version="21.1.4" etag="imrc7X7QnMiyWwvtDkwg" type="github">
  <diagram name="第 1 页" id="bdjlnrXHuoZD6go3lKPE">
    <mxGraphModel>
      <root>
        <mxCell id="0" />
        <mxCell id="1" parent="0" />
      </root>
    </mxGraphModel>
  </diagram>
</mxfile>
